%
M48
M72
T01C0.0236
T02C0.0320
T03C0.0400
T04C0.0440
%
T01
X3867Y8617
X6492Y8617
T02
X1367Y2117
X2367Y2117
X3617Y2617
X3617Y3617
X3617Y4617
X3617Y5617
X4117Y6617
X2367Y6117
X1367Y6117
X6117Y6617
X6617Y5617
X6617Y4617
X6617Y3617
X6617Y2617
X8125Y5701
X9125Y5701
X9125Y6701
T03
X4117Y1367
X5117Y1367
X6117Y1367
X8867Y1367
X8867Y2367
X8867Y3367
X8867Y4367
X8867Y8617
X7867Y8617
X2617Y8617
X1617Y8617
T04
X2117Y7617
X6117Y7617
M30
