G75*
G70*
%OFA0B0*%
%FSLAX24Y24*%
%IPPOS*%
%LPD*%
%AMOC8*
5,1,8,0,0,1.08239X$1,22.5*
%
%ADD10C,0.0160*%
%ADD11C,0.0560*%
%ADD12C,0.0640*%
%ADD13OC8,0.0560*%
%ADD14C,0.0700*%
D10*
X000367Y000180D02*
X010117Y000180D01*
X010117Y009867D01*
X000367Y009867D01*
X000367Y000180D01*
D11*
X003357Y002617D02*
X003877Y002617D01*
X003877Y003617D02*
X003357Y003617D01*
X003357Y004617D02*
X003877Y004617D01*
X003877Y005617D02*
X003357Y005617D01*
X006357Y005617D02*
X006877Y005617D01*
X006877Y004617D02*
X006357Y004617D01*
X006357Y003617D02*
X006877Y003617D01*
X006877Y002617D02*
X006357Y002617D01*
D12*
X006117Y001667D02*
X006117Y001067D01*
X005117Y001067D02*
X005117Y001667D01*
X004117Y001667D02*
X004117Y001067D01*
X008567Y001367D02*
X009167Y001367D01*
X009167Y002367D02*
X008567Y002367D01*
X008567Y003367D02*
X009167Y003367D01*
X009167Y004367D02*
X008567Y004367D01*
X008867Y008317D02*
X008867Y008917D01*
X007867Y008917D02*
X007867Y008317D01*
X002617Y008317D02*
X002617Y008917D01*
X001617Y008917D02*
X001617Y008317D01*
D13*
X004117Y006617D03*
X002367Y006117D03*
X001367Y006117D03*
X006117Y006617D03*
X008125Y005701D03*
X009125Y005701D03*
X009125Y006701D03*
X002367Y002117D03*
X001367Y002117D03*
D14*
X002117Y007617D03*
X006117Y007617D03*
M02*
