G75*
G70*
%OFA0B0*%
%FSLAX24Y24*%
%IPPOS*%
%LPD*%
%AMOC8*
5,1,8,0,0,1.08239X$1,22.5*
%
%ADD10C,0.0160*%
%ADD11C,0.0060*%
%ADD12C,0.0050*%
%ADD13C,0.0020*%
%ADD14R,0.0200X0.1000*%
%ADD15R,0.0750X0.0300*%
%ADD16R,0.0240X0.0340*%
%ADD17C,0.0120*%
D10*
X000367Y000180D02*
X010117Y000180D01*
X010117Y009867D01*
X000367Y009867D01*
X000367Y000180D01*
D11*
X003617Y001117D02*
X003867Y000867D01*
X004367Y000867D01*
X004617Y001117D01*
X004867Y000867D01*
X005367Y000867D01*
X005617Y001117D01*
X005867Y000867D01*
X006367Y000867D01*
X006617Y001117D01*
X006617Y001617D01*
X006367Y001867D01*
X005867Y001867D01*
X005617Y001617D01*
X005617Y001117D01*
X005617Y001617D02*
X005367Y001867D01*
X004867Y001867D01*
X004617Y001617D01*
X004617Y001117D01*
X004617Y001617D02*
X004367Y001867D01*
X003867Y001867D01*
X003617Y001617D01*
X003617Y001117D01*
X004017Y002117D02*
X006217Y002117D01*
X006217Y006117D01*
X005367Y006117D01*
X005365Y006087D01*
X005360Y006057D01*
X005351Y006028D01*
X005338Y006001D01*
X005323Y005975D01*
X005304Y005951D01*
X005283Y005930D01*
X005259Y005911D01*
X005233Y005896D01*
X005206Y005883D01*
X005177Y005874D01*
X005147Y005869D01*
X005117Y005867D01*
X005087Y005869D01*
X005057Y005874D01*
X005028Y005883D01*
X005001Y005896D01*
X004975Y005911D01*
X004951Y005930D01*
X004930Y005951D01*
X004911Y005975D01*
X004896Y006001D01*
X004883Y006028D01*
X004874Y006057D01*
X004869Y006087D01*
X004867Y006117D01*
X004017Y006117D01*
X004017Y002117D01*
X002817Y002967D02*
X002817Y003117D01*
X002767Y003167D01*
X002767Y005067D01*
X002817Y005117D01*
X002817Y005267D01*
X002815Y005284D01*
X002811Y005301D01*
X002804Y005317D01*
X002794Y005331D01*
X002781Y005344D01*
X002767Y005354D01*
X002751Y005361D01*
X002734Y005365D01*
X002717Y005367D01*
X002017Y005367D01*
X002000Y005365D01*
X001983Y005361D01*
X001967Y005354D01*
X001953Y005344D01*
X001940Y005331D01*
X001930Y005317D01*
X001923Y005301D01*
X001919Y005284D01*
X001917Y005267D01*
X001917Y005117D01*
X001967Y005067D01*
X001967Y003167D01*
X001917Y003117D01*
X001917Y002967D01*
X001919Y002950D01*
X001923Y002933D01*
X001930Y002917D01*
X001940Y002903D01*
X001953Y002890D01*
X001967Y002880D01*
X001983Y002873D01*
X002000Y002869D01*
X002017Y002867D01*
X002717Y002867D01*
X002734Y002869D01*
X002751Y002873D01*
X002767Y002880D01*
X002781Y002890D01*
X002794Y002903D01*
X002804Y002917D01*
X002811Y002933D01*
X002815Y002950D01*
X002817Y002967D01*
X001817Y002967D02*
X001817Y003117D01*
X001767Y003167D01*
X001767Y005067D01*
X001817Y005117D01*
X001817Y005267D01*
X001815Y005284D01*
X001811Y005301D01*
X001804Y005317D01*
X001794Y005331D01*
X001781Y005344D01*
X001767Y005354D01*
X001751Y005361D01*
X001734Y005365D01*
X001717Y005367D01*
X001017Y005367D01*
X001000Y005365D01*
X000983Y005361D01*
X000967Y005354D01*
X000953Y005344D01*
X000940Y005331D01*
X000930Y005317D01*
X000923Y005301D01*
X000919Y005284D01*
X000917Y005267D01*
X000917Y005117D01*
X000967Y005067D01*
X000967Y003167D01*
X000917Y003117D01*
X000917Y002967D01*
X000919Y002950D01*
X000923Y002933D01*
X000930Y002917D01*
X000940Y002903D01*
X000953Y002890D01*
X000967Y002880D01*
X000983Y002873D01*
X001000Y002869D01*
X001017Y002867D01*
X001717Y002867D01*
X001734Y002869D01*
X001751Y002873D01*
X001767Y002880D01*
X001781Y002890D01*
X001794Y002903D01*
X001804Y002917D01*
X001811Y002933D01*
X001815Y002950D01*
X001817Y002967D01*
X003767Y006117D02*
X006467Y006117D01*
X006484Y006119D01*
X006501Y006123D01*
X006517Y006130D01*
X006531Y006140D01*
X006544Y006153D01*
X006554Y006167D01*
X006561Y006183D01*
X006565Y006200D01*
X006567Y006217D01*
X006567Y007017D01*
X006565Y007034D01*
X006561Y007051D01*
X006554Y007067D01*
X006544Y007081D01*
X006531Y007094D01*
X006517Y007104D01*
X006501Y007111D01*
X006484Y007115D01*
X006467Y007117D01*
X003767Y007117D01*
X003750Y007115D01*
X003733Y007111D01*
X003717Y007104D01*
X003703Y007094D01*
X003690Y007081D01*
X003680Y007067D01*
X003673Y007051D01*
X003669Y007034D01*
X003667Y007017D01*
X003667Y006217D01*
X003669Y006200D01*
X003673Y006183D01*
X003680Y006167D01*
X003690Y006153D01*
X003703Y006140D01*
X003717Y006130D01*
X003733Y006123D01*
X003750Y006119D01*
X003767Y006117D01*
X004517Y006617D02*
X004997Y006617D01*
X005247Y006617D02*
X005717Y006617D01*
X004917Y007117D02*
X004917Y008117D01*
X003317Y008117D01*
X003317Y007117D01*
X004917Y007117D01*
X004517Y007367D02*
X004117Y007617D01*
X004117Y007367D01*
X004117Y007617D02*
X003867Y007617D01*
X004117Y007617D02*
X004117Y007867D01*
X004117Y007617D02*
X004517Y007867D01*
X004517Y007367D01*
X004717Y007617D02*
X004117Y007617D01*
X003117Y008367D02*
X002867Y008117D01*
X002367Y008117D01*
X002117Y008367D01*
X001867Y008117D01*
X001367Y008117D01*
X001117Y008367D01*
X001117Y008867D01*
X001367Y009117D01*
X001867Y009117D01*
X002117Y008867D01*
X002367Y009117D01*
X002867Y009117D01*
X003117Y008867D01*
X003117Y008367D01*
X002117Y008367D02*
X002117Y008867D01*
X007367Y008867D02*
X007367Y008367D01*
X007617Y008117D01*
X008117Y008117D01*
X008367Y008367D01*
X008367Y008867D01*
X008117Y009117D01*
X007617Y009117D01*
X007367Y008867D01*
X008367Y008867D02*
X008617Y009117D01*
X009117Y009117D01*
X009367Y008867D01*
X009367Y008367D01*
X009117Y008117D01*
X008617Y008117D01*
X008367Y008367D01*
X008617Y004867D02*
X009117Y004867D01*
X009367Y004617D01*
X009367Y004117D01*
X009117Y003867D01*
X009367Y003617D01*
X009367Y003117D01*
X009117Y002867D01*
X009367Y002617D01*
X009367Y002117D01*
X009117Y001867D01*
X009367Y001617D01*
X009367Y001117D01*
X009117Y000867D01*
X008617Y000867D01*
X008367Y001117D01*
X008367Y001617D01*
X008617Y001867D01*
X008367Y002117D01*
X008367Y002617D01*
X008617Y002867D01*
X009117Y002867D01*
X008617Y002867D02*
X008367Y003117D01*
X008367Y003617D01*
X008617Y003867D01*
X008367Y004117D01*
X008367Y004617D01*
X008617Y004867D01*
X008617Y003867D02*
X009117Y003867D01*
X009117Y001867D02*
X008617Y001867D01*
D12*
X008122Y001782D02*
X007671Y001782D01*
X008122Y002083D01*
X007671Y002083D01*
X007746Y002243D02*
X007821Y002243D01*
X007896Y002318D01*
X007896Y002468D01*
X007972Y002543D01*
X008047Y002543D01*
X008122Y002468D01*
X008122Y002318D01*
X008047Y002243D01*
X007746Y002243D02*
X007671Y002318D01*
X007671Y002468D01*
X007746Y002543D01*
X007746Y002703D02*
X008047Y002703D01*
X008122Y002778D01*
X008122Y002928D01*
X008047Y003003D01*
X007746Y003003D01*
X007671Y002928D01*
X007671Y002778D01*
X007746Y002703D01*
X007671Y003164D02*
X007671Y003389D01*
X007746Y003464D01*
X007896Y003464D01*
X007972Y003389D01*
X007972Y003164D01*
X007972Y003314D02*
X008122Y003464D01*
X008122Y003164D02*
X007671Y003164D01*
X007671Y001622D02*
X007671Y001322D01*
X008122Y001322D01*
X008122Y001622D01*
X007896Y001472D02*
X007896Y001322D01*
X007972Y001162D02*
X008047Y001162D01*
X008122Y001087D01*
X008122Y000937D01*
X008047Y000862D01*
X007896Y000937D02*
X007896Y001087D01*
X007972Y001162D01*
X007746Y001162D02*
X007671Y001087D01*
X007671Y000937D01*
X007746Y000862D01*
X007821Y000862D01*
X007896Y000937D01*
X004833Y002562D02*
X004532Y002562D01*
X004372Y002487D02*
X004297Y002562D01*
X004147Y002562D01*
X004072Y002487D01*
X004072Y002187D01*
X004147Y002112D01*
X004297Y002112D01*
X004372Y002187D01*
X004372Y002487D01*
X004683Y002562D02*
X004683Y002112D01*
X003912Y002337D02*
X003837Y002262D01*
X003612Y002262D01*
X003612Y002112D02*
X003612Y002562D01*
X003837Y002562D01*
X003912Y002487D01*
X003912Y002337D01*
X001742Y002942D02*
X001291Y002942D01*
X001291Y003167D01*
X001366Y003242D01*
X001516Y003242D01*
X001592Y003167D01*
X001592Y002942D01*
X001592Y003092D02*
X001742Y003242D01*
X001667Y003402D02*
X001742Y003477D01*
X001742Y003627D01*
X001667Y003702D01*
X001516Y003702D01*
X001441Y003627D01*
X001441Y003552D01*
X001516Y003402D01*
X001291Y003402D01*
X001291Y003702D01*
X000742Y003627D02*
X000742Y003477D01*
X000667Y003402D01*
X000742Y003242D02*
X000592Y003092D01*
X000592Y003167D02*
X000592Y002942D01*
X000742Y002942D02*
X000291Y002942D01*
X000291Y003167D01*
X000366Y003242D01*
X000516Y003242D01*
X000592Y003167D01*
X000366Y003402D02*
X000291Y003477D01*
X000291Y003627D01*
X000366Y003702D01*
X000441Y003702D01*
X000516Y003627D01*
X000592Y003702D01*
X000667Y003702D01*
X000742Y003627D01*
X000516Y003627D02*
X000516Y003552D01*
X004142Y006252D02*
X004292Y006252D01*
X004217Y006252D02*
X004217Y006702D01*
X004142Y006702D02*
X004292Y006702D01*
X004449Y006627D02*
X004449Y006327D01*
X004524Y006252D01*
X004674Y006252D01*
X004749Y006327D01*
X004909Y006252D02*
X005209Y006252D01*
X005059Y006252D02*
X005059Y006702D01*
X004909Y006552D01*
X004749Y006627D02*
X004674Y006702D01*
X004524Y006702D01*
X004449Y006627D01*
X004402Y007292D02*
X004402Y007742D01*
X004252Y007592D01*
X004092Y007667D02*
X004017Y007742D01*
X003867Y007742D01*
X003792Y007667D01*
X003792Y007367D01*
X003867Y007292D01*
X004017Y007292D01*
X004092Y007367D01*
X004252Y007292D02*
X004552Y007292D01*
X004102Y008292D02*
X003802Y008292D01*
X003952Y008292D02*
X003952Y008742D01*
X003802Y008592D01*
X003642Y008667D02*
X003642Y008367D01*
X003567Y008292D01*
X003342Y008292D01*
X003342Y008742D01*
X003567Y008742D01*
X003642Y008667D01*
X003012Y007872D02*
X003012Y007422D01*
X002711Y007872D01*
X002711Y007422D01*
X002554Y007422D02*
X002404Y007422D01*
X002479Y007422D02*
X002479Y007872D01*
X002404Y007872D02*
X002554Y007872D01*
X002244Y007872D02*
X002244Y007572D01*
X002094Y007422D01*
X001944Y007572D01*
X001944Y007872D01*
X007075Y006401D02*
X007075Y006001D01*
X007493Y006001D01*
X007493Y006401D02*
X007075Y006401D01*
X007120Y007422D02*
X007120Y007872D01*
X007270Y007722D01*
X007420Y007872D01*
X007420Y007422D01*
X007580Y007497D02*
X007655Y007422D01*
X007805Y007422D01*
X007880Y007497D01*
X007880Y007797D01*
X007805Y007872D01*
X007655Y007872D01*
X007580Y007797D01*
X007580Y007497D01*
X008040Y007872D02*
X008341Y007872D01*
X008191Y007872D02*
X008191Y007422D01*
X008501Y007497D02*
X008576Y007422D01*
X008726Y007422D01*
X008801Y007497D01*
X008801Y007797D01*
X008726Y007872D01*
X008576Y007872D01*
X008501Y007797D01*
X008501Y007497D01*
X008961Y007572D02*
X009186Y007572D01*
X009262Y007647D01*
X009262Y007797D01*
X009186Y007872D01*
X008961Y007872D01*
X008961Y007422D01*
X009111Y007572D02*
X009262Y007422D01*
X009900Y006676D02*
X010200Y006676D01*
X010050Y006676D02*
X010050Y006226D01*
X010360Y006226D02*
X010661Y006226D01*
X010511Y006226D02*
X010511Y006676D01*
X010360Y006526D01*
X007475Y006201D02*
X007477Y006268D01*
X007483Y006336D01*
X007493Y006403D01*
X007507Y006469D01*
X007524Y006534D01*
X007546Y006598D01*
X007571Y006661D01*
X007600Y006722D01*
X007632Y006781D01*
X007668Y006838D01*
X007707Y006893D01*
X007749Y006946D01*
X007794Y006996D01*
X007842Y007043D01*
X007893Y007088D01*
X007946Y007129D01*
X008002Y007168D01*
X008060Y007203D01*
X008120Y007234D01*
X008181Y007262D01*
X008244Y007286D01*
X008308Y007307D01*
X008374Y007323D01*
X008440Y007336D01*
X008507Y007345D01*
X008574Y007350D01*
X008642Y007351D01*
X008709Y007348D01*
X008776Y007341D01*
X008843Y007330D01*
X008909Y007315D01*
X008974Y007297D01*
X009038Y007274D01*
X009100Y007248D01*
X009161Y007219D01*
X009219Y007185D01*
X009276Y007149D01*
X009331Y007109D01*
X009383Y007066D01*
X009432Y007020D01*
X009479Y006971D01*
X009523Y006920D01*
X009563Y006866D01*
X009601Y006810D01*
X009635Y006751D01*
X009665Y006691D01*
X009692Y006629D01*
X009716Y006566D01*
X009735Y006501D01*
X009751Y006436D01*
X009763Y006369D01*
X009771Y006302D01*
X009775Y006235D01*
X009775Y006167D01*
X009771Y006100D01*
X009763Y006033D01*
X009751Y005966D01*
X009735Y005901D01*
X009716Y005836D01*
X009692Y005773D01*
X009665Y005711D01*
X009635Y005651D01*
X009601Y005592D01*
X009563Y005536D01*
X009523Y005482D01*
X009479Y005431D01*
X009432Y005382D01*
X009383Y005336D01*
X009331Y005293D01*
X009276Y005253D01*
X009219Y005217D01*
X009161Y005183D01*
X009100Y005154D01*
X009038Y005128D01*
X008974Y005105D01*
X008909Y005087D01*
X008843Y005072D01*
X008776Y005061D01*
X008709Y005054D01*
X008642Y005051D01*
X008574Y005052D01*
X008507Y005057D01*
X008440Y005066D01*
X008374Y005079D01*
X008308Y005095D01*
X008244Y005116D01*
X008181Y005140D01*
X008120Y005168D01*
X008060Y005199D01*
X008002Y005234D01*
X007946Y005273D01*
X007893Y005314D01*
X007842Y005359D01*
X007794Y005406D01*
X007749Y005456D01*
X007707Y005509D01*
X007668Y005564D01*
X007632Y005621D01*
X007600Y005680D01*
X007571Y005741D01*
X007546Y005804D01*
X007524Y005868D01*
X007507Y005933D01*
X007493Y005999D01*
X007483Y006066D01*
X007477Y006134D01*
X007475Y006201D01*
D13*
X009502Y005835D02*
X009522Y005889D01*
X009540Y005944D01*
X009554Y006000D01*
X009564Y006057D01*
X009571Y006114D01*
X009575Y006172D01*
X009575Y006230D01*
X009571Y006288D01*
X009564Y006345D01*
X009554Y006402D01*
X009540Y006458D01*
X009522Y006513D01*
X009502Y006567D01*
X008991Y007078D02*
X008934Y007099D01*
X008876Y007117D01*
X008817Y007131D01*
X008757Y007142D01*
X008697Y007148D01*
X008637Y007151D01*
X008576Y007150D01*
X008516Y007145D01*
X008456Y007136D01*
X008396Y007123D01*
X008338Y007107D01*
X008281Y007087D01*
X008225Y007063D01*
X008171Y007036D01*
X008119Y007005D01*
X008068Y006971D01*
X008021Y006934D01*
X007975Y006894D01*
X007932Y006851D01*
X007892Y006805D01*
X007855Y006758D01*
X007821Y006707D01*
X007790Y006655D01*
X007763Y006601D01*
X007739Y006545D01*
X007719Y006488D01*
X007703Y006430D01*
X007690Y006370D01*
X007681Y006310D01*
X007676Y006250D01*
X007675Y006189D01*
X007678Y006129D01*
X007684Y006069D01*
X007695Y006009D01*
X007709Y005950D01*
X007727Y005892D01*
X007748Y005835D01*
X008259Y005324D02*
X008313Y005304D01*
X008368Y005286D01*
X008424Y005272D01*
X008481Y005262D01*
X008538Y005255D01*
X008596Y005251D01*
X008654Y005251D01*
X008712Y005255D01*
X008769Y005262D01*
X008826Y005272D01*
X008882Y005286D01*
X008937Y005304D01*
X008991Y005324D01*
D14*
X003567Y007617D03*
D15*
X002942Y007617D03*
X005292Y007617D03*
D16*
X002367Y005537D03*
X001367Y005537D03*
X001367Y002697D03*
X002367Y002697D03*
D17*
X004997Y006367D02*
X004997Y006617D01*
X004997Y006867D01*
X005247Y006867D02*
X005247Y006617D01*
X005247Y006367D01*
M02*
