G75*
G70*
%OFA0B0*%
%FSLAX24Y24*%
%IPPOS*%
%LPD*%
%AMOC8*
5,1,8,0,0,1.08239X$1,22.5*
%
%ADD10C,0.0160*%
%ADD11C,0.0520*%
%ADD12C,0.0600*%
%ADD13OC8,0.0520*%
%ADD14C,0.0660*%
%ADD15C,0.0240*%
%ADD16R,0.0356X0.0356*%
D10*
X000367Y000180D02*
X010117Y000180D01*
X010117Y009867D01*
X000367Y009867D01*
X000367Y000180D01*
X000687Y000500D02*
X000687Y009547D01*
X009797Y009547D01*
X009797Y000500D01*
X000687Y000500D01*
X000687Y000559D02*
X004932Y000559D01*
X005009Y000527D02*
X005224Y000527D01*
X005423Y000609D01*
X005574Y000761D01*
X005617Y000863D01*
X005659Y000761D01*
X005811Y000609D01*
X006009Y000527D01*
X006224Y000527D01*
X006423Y000609D01*
X006574Y000761D01*
X006657Y000959D01*
X006657Y001774D01*
X006574Y001972D01*
X006430Y002117D01*
X006976Y002117D01*
X007160Y002193D01*
X007224Y002257D01*
X007438Y002257D01*
X007571Y002311D01*
X007672Y002413D01*
X008214Y002955D01*
X008261Y002909D01*
X008363Y002867D01*
X008261Y002824D01*
X008109Y002672D01*
X008027Y002474D01*
X008027Y002259D01*
X008109Y002061D01*
X008261Y001909D01*
X008363Y001867D01*
X008261Y001824D01*
X008109Y001672D01*
X008027Y001474D01*
X008027Y001259D01*
X008109Y001061D01*
X008261Y000909D01*
X008459Y000827D01*
X009274Y000827D01*
X009473Y000909D01*
X009624Y001061D01*
X009707Y001259D01*
X009707Y001474D01*
X009624Y001672D01*
X009473Y001824D01*
X009371Y001867D01*
X009473Y001909D01*
X009624Y002061D01*
X009707Y002259D01*
X009707Y002474D01*
X009624Y002672D01*
X009473Y002824D01*
X009371Y002867D01*
X009473Y002909D01*
X009624Y003061D01*
X009707Y003259D01*
X009707Y003474D01*
X009624Y003672D01*
X009473Y003824D01*
X009287Y003901D01*
X009351Y003922D01*
X009418Y003956D01*
X009479Y004000D01*
X009533Y004054D01*
X009577Y004115D01*
X009611Y004182D01*
X009635Y004254D01*
X009647Y004329D01*
X009647Y004347D01*
X008887Y004347D01*
X008887Y004387D01*
X008847Y004387D01*
X008847Y004847D01*
X008529Y004847D01*
X008454Y004835D01*
X008382Y004811D01*
X008315Y004777D01*
X008254Y004733D01*
X008201Y004679D01*
X008156Y004618D01*
X008122Y004551D01*
X008098Y004479D01*
X008087Y004404D01*
X008087Y004387D01*
X008847Y004387D01*
X008847Y004347D01*
X008087Y004347D01*
X008087Y004329D01*
X008098Y004254D01*
X008122Y004182D01*
X008156Y004115D01*
X008201Y004054D01*
X008254Y004000D01*
X008315Y003956D01*
X008382Y003922D01*
X008446Y003901D01*
X008261Y003824D01*
X008163Y003727D01*
X008045Y003727D01*
X007913Y003672D01*
X007221Y002980D01*
X007160Y003040D01*
X006976Y003117D01*
X007160Y003193D01*
X007301Y003333D01*
X007377Y003517D01*
X007377Y003716D01*
X007301Y003900D01*
X007160Y004040D01*
X006976Y004117D01*
X007160Y004193D01*
X007301Y004333D01*
X007377Y004517D01*
X007377Y004716D01*
X007301Y004900D01*
X007160Y005040D01*
X006976Y005117D01*
X007160Y005193D01*
X007301Y005333D01*
X007377Y005517D01*
X007377Y005716D01*
X007301Y005900D01*
X007160Y006040D01*
X006976Y006117D01*
X006257Y006117D01*
X006073Y006040D01*
X006010Y005977D01*
X005795Y005977D01*
X005663Y005922D01*
X005561Y005820D01*
X005061Y005320D01*
X005007Y005188D01*
X005007Y002295D01*
X005043Y002207D01*
X005009Y002207D01*
X004811Y002124D01*
X004659Y001972D01*
X004582Y001787D01*
X004561Y001851D01*
X004527Y001918D01*
X004483Y001979D01*
X004429Y002033D01*
X004368Y002077D01*
X004301Y002111D01*
X004229Y002135D01*
X004154Y002147D01*
X004137Y002147D01*
X004137Y001387D01*
X004097Y001387D01*
X004097Y002147D01*
X004079Y002147D01*
X004004Y002135D01*
X003932Y002111D01*
X003865Y002077D01*
X003804Y002033D01*
X003751Y001979D01*
X003706Y001918D01*
X003672Y001851D01*
X003648Y001779D01*
X003637Y001704D01*
X003637Y001387D01*
X004097Y001387D01*
X004097Y001347D01*
X003637Y001347D01*
X003637Y001029D01*
X003648Y000954D01*
X003672Y000882D01*
X003706Y000815D01*
X003751Y000754D01*
X003804Y000700D01*
X003865Y000656D01*
X003932Y000622D01*
X004004Y000598D01*
X004079Y000587D01*
X004097Y000587D01*
X004097Y001347D01*
X004137Y001347D01*
X004137Y000587D01*
X004154Y000587D01*
X004229Y000598D01*
X004301Y000622D01*
X004368Y000656D01*
X004429Y000700D01*
X004483Y000754D01*
X004527Y000815D01*
X004561Y000882D01*
X004582Y000946D01*
X004659Y000761D01*
X004811Y000609D01*
X005009Y000527D01*
X005301Y000559D02*
X005932Y000559D01*
X005702Y000717D02*
X005531Y000717D01*
X006301Y000559D02*
X009797Y000559D01*
X009797Y000717D02*
X006531Y000717D01*
X006622Y000876D02*
X008341Y000876D01*
X008135Y001034D02*
X006657Y001034D01*
X006657Y001193D02*
X008054Y001193D01*
X008027Y001351D02*
X006657Y001351D01*
X006657Y001510D02*
X008041Y001510D01*
X008107Y001668D02*
X006657Y001668D01*
X006635Y001827D02*
X008266Y001827D01*
X008184Y001985D02*
X006562Y001985D01*
X007041Y002144D02*
X008075Y002144D01*
X008027Y002302D02*
X007548Y002302D01*
X007720Y002461D02*
X008027Y002461D01*
X008087Y002619D02*
X007878Y002619D01*
X008037Y002778D02*
X008214Y002778D01*
X008195Y002936D02*
X008233Y002936D01*
X007653Y003412D02*
X007333Y003412D01*
X007220Y003253D02*
X007494Y003253D01*
X007336Y003095D02*
X007029Y003095D01*
X006976Y003117D02*
X006257Y003117D01*
X006976Y003117D01*
X007377Y003570D02*
X007811Y003570D01*
X008165Y003729D02*
X007371Y003729D01*
X007306Y003887D02*
X008412Y003887D01*
X008209Y004046D02*
X007148Y004046D01*
X007171Y004204D02*
X008115Y004204D01*
X008112Y004521D02*
X007377Y004521D01*
X007377Y004680D02*
X008201Y004680D01*
X008475Y004838D02*
X007326Y004838D01*
X007204Y004997D02*
X009797Y004997D01*
X009797Y004838D02*
X009258Y004838D01*
X009279Y004835D02*
X009204Y004847D01*
X008887Y004847D01*
X008887Y004387D01*
X009647Y004387D01*
X009647Y004404D01*
X009635Y004479D01*
X009611Y004551D01*
X009577Y004618D01*
X009533Y004679D01*
X009479Y004733D01*
X009418Y004777D01*
X009351Y004811D01*
X009279Y004835D01*
X009532Y004680D02*
X009797Y004680D01*
X009797Y004521D02*
X009621Y004521D01*
X009797Y004363D02*
X008887Y004363D01*
X008847Y004363D02*
X007313Y004363D01*
X006976Y004117D02*
X006257Y004117D01*
X006073Y004193D01*
X005933Y004333D01*
X005857Y004517D01*
X005857Y004716D01*
X005933Y004900D01*
X006073Y005040D01*
X006257Y005117D01*
X006976Y005117D01*
X006257Y005117D01*
X006073Y005193D01*
X006013Y005253D01*
X005727Y004967D01*
X005727Y002516D01*
X006036Y002207D01*
X006060Y002207D01*
X005933Y002333D01*
X005857Y002517D01*
X005857Y002716D01*
X005933Y002900D01*
X006073Y003040D01*
X006257Y003117D01*
X006073Y003193D01*
X005933Y003333D01*
X005857Y003517D01*
X005857Y003716D01*
X005933Y003900D01*
X006073Y004040D01*
X006257Y004117D01*
X006976Y004117D01*
X006086Y004046D02*
X005727Y004046D01*
X005727Y004204D02*
X006062Y004204D01*
X005921Y004363D02*
X005727Y004363D01*
X005727Y004521D02*
X005857Y004521D01*
X005857Y004680D02*
X005727Y004680D01*
X005727Y004838D02*
X005907Y004838D01*
X006030Y004997D02*
X005756Y004997D01*
X005914Y005155D02*
X006164Y005155D01*
X005530Y005789D02*
X004346Y005789D01*
X004377Y005716D02*
X004301Y005900D01*
X004160Y006040D01*
X003976Y006117D01*
X003257Y006117D01*
X003073Y006040D01*
X002933Y005900D01*
X002857Y005716D01*
X002857Y005517D01*
X002933Y005333D01*
X003073Y005193D01*
X003257Y005117D01*
X003976Y005117D01*
X004160Y005193D01*
X004301Y005333D01*
X004377Y005517D01*
X004377Y005716D01*
X004377Y005631D02*
X005372Y005631D01*
X005213Y005472D02*
X004358Y005472D01*
X004281Y005314D02*
X005059Y005314D01*
X005007Y005155D02*
X004069Y005155D01*
X003976Y005117D02*
X004160Y005040D01*
X004301Y004900D01*
X004377Y004716D01*
X004377Y004517D01*
X004301Y004333D01*
X004160Y004193D01*
X003976Y004117D01*
X003257Y004117D01*
X003073Y004193D01*
X002933Y004333D01*
X002857Y004517D01*
X002857Y004716D01*
X002933Y004900D01*
X003073Y005040D01*
X003257Y005117D01*
X003976Y005117D01*
X004204Y004997D02*
X005007Y004997D01*
X005007Y004838D02*
X004326Y004838D01*
X004377Y004680D02*
X005007Y004680D01*
X005007Y004521D02*
X004377Y004521D01*
X004313Y004363D02*
X005007Y004363D01*
X005007Y004204D02*
X004171Y004204D01*
X004148Y004046D02*
X005007Y004046D01*
X005007Y003887D02*
X004306Y003887D01*
X004301Y003900D02*
X004160Y004040D01*
X003976Y004117D01*
X003257Y004117D01*
X003073Y004040D01*
X002933Y003900D01*
X002857Y003716D01*
X002857Y003517D01*
X002933Y003333D01*
X003073Y003193D01*
X003257Y003117D01*
X003976Y003117D01*
X004160Y003193D01*
X004301Y003333D01*
X004377Y003517D01*
X004377Y003716D01*
X004301Y003900D01*
X004371Y003729D02*
X005007Y003729D01*
X005007Y003570D02*
X004377Y003570D01*
X004333Y003412D02*
X005007Y003412D01*
X005007Y003253D02*
X004220Y003253D01*
X004107Y002993D02*
X004046Y003024D01*
X003980Y003046D01*
X003911Y003057D01*
X003617Y003057D01*
X003617Y002617D01*
X003617Y002617D01*
X004317Y002617D01*
X004317Y002651D01*
X004306Y002720D01*
X004284Y002785D01*
X004253Y002847D01*
X004212Y002903D01*
X004163Y002952D01*
X004107Y002993D01*
X004179Y002936D02*
X005007Y002936D01*
X005007Y003095D02*
X000687Y003095D01*
X000687Y002936D02*
X003054Y002936D01*
X003070Y002952D02*
X003021Y002903D01*
X002980Y002847D01*
X002949Y002785D01*
X002928Y002720D01*
X002917Y002651D01*
X002917Y002617D01*
X003617Y002617D01*
X003617Y002617D01*
X003617Y003057D01*
X003322Y003057D01*
X003254Y003046D01*
X003188Y003024D01*
X003126Y002993D01*
X003070Y002952D01*
X002946Y002778D02*
X000687Y002778D01*
X000687Y002619D02*
X002917Y002619D01*
X002917Y002617D02*
X002917Y002582D01*
X002928Y002514D01*
X002949Y002448D01*
X002980Y002386D01*
X003021Y002330D01*
X003070Y002281D01*
X003126Y002240D01*
X003188Y002209D01*
X003254Y002187D01*
X003322Y002177D01*
X003617Y002177D01*
X003911Y002177D01*
X003980Y002187D01*
X004046Y002209D01*
X004107Y002240D01*
X004163Y002281D01*
X004212Y002330D01*
X004253Y002386D01*
X004284Y002448D01*
X004306Y002514D01*
X004317Y002582D01*
X004317Y002617D01*
X003617Y002617D01*
X003617Y002617D01*
X003617Y002177D01*
X003617Y002617D01*
X003617Y002617D01*
X002917Y002617D01*
X002945Y002461D02*
X002730Y002461D01*
X002867Y002324D02*
X002574Y002617D01*
X002160Y002617D01*
X001867Y002324D01*
X001867Y001909D01*
X002160Y001617D01*
X002574Y001617D01*
X002867Y001909D01*
X002867Y002324D01*
X002867Y002302D02*
X003049Y002302D01*
X002867Y002144D02*
X004060Y002144D01*
X004097Y002144D02*
X004137Y002144D01*
X004173Y002144D02*
X004857Y002144D01*
X005007Y002302D02*
X004184Y002302D01*
X004289Y002461D02*
X005007Y002461D01*
X005007Y002619D02*
X004317Y002619D01*
X004287Y002778D02*
X005007Y002778D01*
X005727Y002778D02*
X005882Y002778D01*
X005857Y002619D02*
X005727Y002619D01*
X005782Y002461D02*
X005880Y002461D01*
X005940Y002302D02*
X005964Y002302D01*
X005969Y002936D02*
X005727Y002936D01*
X005727Y003095D02*
X006204Y003095D01*
X006013Y003253D02*
X005727Y003253D01*
X005727Y003412D02*
X005900Y003412D01*
X005857Y003570D02*
X005727Y003570D01*
X005727Y003729D02*
X005862Y003729D01*
X005928Y003887D02*
X005727Y003887D01*
X007069Y005155D02*
X009797Y005155D01*
X009797Y005314D02*
X009445Y005314D01*
X009332Y005201D02*
X009625Y005494D01*
X009625Y005908D01*
X009332Y006201D01*
X009625Y006494D01*
X009625Y006908D01*
X009332Y007201D01*
X008918Y007201D01*
X008625Y006908D01*
X008625Y006494D01*
X008918Y006201D01*
X009332Y006201D01*
X008918Y006201D01*
X008625Y005908D01*
X008625Y005494D01*
X008918Y005201D01*
X009332Y005201D01*
X009604Y005472D02*
X009797Y005472D01*
X009797Y005631D02*
X009625Y005631D01*
X009625Y005789D02*
X009797Y005789D01*
X009797Y005948D02*
X009585Y005948D01*
X009427Y006106D02*
X009797Y006106D01*
X009797Y006265D02*
X009396Y006265D01*
X009555Y006423D02*
X009797Y006423D01*
X009797Y006582D02*
X009625Y006582D01*
X009625Y006740D02*
X009797Y006740D01*
X009797Y006899D02*
X009625Y006899D01*
X009476Y007057D02*
X009797Y007057D01*
X009797Y007216D02*
X008225Y007216D01*
X008383Y007374D02*
X009797Y007374D01*
X009797Y007533D02*
X008542Y007533D01*
X008700Y007691D02*
X009797Y007691D01*
X009797Y007850D02*
X009150Y007850D01*
X009173Y007859D02*
X009324Y008011D01*
X009407Y008209D01*
X009407Y009024D01*
X009324Y009222D01*
X009173Y009374D01*
X008974Y009457D01*
X008759Y009457D01*
X008561Y009374D01*
X008409Y009222D01*
X008367Y009121D01*
X008324Y009222D01*
X008173Y009374D01*
X007974Y009457D01*
X007759Y009457D01*
X007561Y009374D01*
X007409Y009222D01*
X007327Y009024D01*
X007327Y008209D01*
X007363Y008122D01*
X007218Y007977D01*
X006563Y007977D01*
X006440Y008100D01*
X006230Y008187D01*
X006003Y008187D01*
X005794Y008100D01*
X005633Y007939D01*
X005547Y007730D01*
X005547Y007503D01*
X005633Y007294D01*
X005794Y007133D01*
X005888Y007095D01*
X005770Y006977D01*
X005516Y006977D01*
X004571Y007922D01*
X004438Y007977D01*
X002955Y007977D01*
X002983Y008004D01*
X003027Y008065D01*
X003061Y008132D01*
X003085Y008204D01*
X003097Y008279D01*
X003097Y008597D01*
X002637Y008597D01*
X002637Y008637D01*
X002597Y008637D01*
X002597Y009397D01*
X002579Y009397D01*
X002504Y009385D01*
X002432Y009361D01*
X002365Y009327D01*
X002304Y009283D01*
X002251Y009229D01*
X002206Y009168D01*
X002172Y009101D01*
X002151Y009037D01*
X002074Y009222D01*
X001923Y009374D01*
X001724Y009457D01*
X001509Y009457D01*
X001311Y009374D01*
X001159Y009222D01*
X001077Y009024D01*
X001077Y008209D01*
X001159Y008011D01*
X001311Y007859D01*
X001509Y007777D01*
X001566Y007777D01*
X001547Y007730D01*
X001547Y007503D01*
X001633Y007294D01*
X001794Y007133D01*
X002003Y007047D01*
X002230Y007047D01*
X002440Y007133D01*
X002563Y007257D01*
X004218Y007257D01*
X005061Y006413D01*
X005163Y006311D01*
X005295Y006257D01*
X005770Y006257D01*
X005910Y006117D01*
X006324Y006117D01*
X006617Y006409D01*
X006617Y006482D01*
X006891Y006757D01*
X007688Y006757D01*
X007821Y006811D01*
X008786Y007777D01*
X008974Y007777D01*
X009173Y007859D01*
X009322Y008008D02*
X009797Y008008D01*
X009797Y008167D02*
X009389Y008167D01*
X009407Y008325D02*
X009797Y008325D01*
X009797Y008484D02*
X009407Y008484D01*
X009407Y008642D02*
X009797Y008642D01*
X009797Y008801D02*
X009407Y008801D01*
X009407Y008959D02*
X009797Y008959D01*
X009797Y009118D02*
X009368Y009118D01*
X009271Y009276D02*
X009797Y009276D01*
X009797Y009435D02*
X009027Y009435D01*
X008706Y009435D02*
X008027Y009435D01*
X008271Y009276D02*
X008463Y009276D01*
X007706Y009435D02*
X001777Y009435D01*
X002021Y009276D02*
X002297Y009276D01*
X002180Y009118D02*
X002118Y009118D01*
X002597Y009118D02*
X002637Y009118D01*
X002637Y008959D02*
X002597Y008959D01*
X002597Y008801D02*
X002637Y008801D01*
X002637Y008642D02*
X002597Y008642D01*
X002637Y008637D02*
X002637Y009397D01*
X002654Y009397D01*
X002729Y009385D01*
X002801Y009361D01*
X002868Y009327D01*
X002929Y009283D01*
X002983Y009229D01*
X003027Y009168D01*
X003061Y009101D01*
X003085Y009029D01*
X003097Y008954D01*
X003097Y008637D01*
X002637Y008637D01*
X003097Y008642D02*
X003449Y008642D01*
X003449Y008801D02*
X003097Y008801D01*
X003096Y008959D02*
X003514Y008959D01*
X003485Y008931D02*
X003449Y008842D01*
X003449Y008391D01*
X003485Y008303D01*
X003553Y008235D01*
X003641Y008198D01*
X004093Y008198D01*
X004181Y008235D01*
X004202Y008257D01*
X006156Y008257D01*
X006178Y008235D01*
X006266Y008198D01*
X006718Y008198D01*
X006806Y008235D01*
X006873Y008303D01*
X006910Y008391D01*
X006910Y008842D01*
X006873Y008931D01*
X006806Y008998D01*
X006718Y009035D01*
X006266Y009035D01*
X006178Y008998D01*
X006156Y008977D01*
X004202Y008977D01*
X004181Y008998D01*
X004093Y009035D01*
X003641Y009035D01*
X003553Y008998D01*
X003485Y008931D01*
X003053Y009118D02*
X007365Y009118D01*
X007327Y008959D02*
X006845Y008959D01*
X006910Y008801D02*
X007327Y008801D01*
X007327Y008642D02*
X006910Y008642D01*
X006910Y008484D02*
X007327Y008484D01*
X007327Y008325D02*
X006883Y008325D01*
X006531Y008008D02*
X007249Y008008D01*
X007344Y008167D02*
X006278Y008167D01*
X005955Y008167D02*
X003073Y008167D01*
X003097Y008325D02*
X003476Y008325D01*
X003449Y008484D02*
X003097Y008484D01*
X002986Y008008D02*
X005702Y008008D01*
X005596Y007850D02*
X004643Y007850D01*
X004801Y007691D02*
X005547Y007691D01*
X005547Y007533D02*
X004960Y007533D01*
X005118Y007374D02*
X005600Y007374D01*
X005712Y007216D02*
X005277Y007216D01*
X005435Y007057D02*
X005850Y007057D01*
X006716Y006582D02*
X008625Y006582D01*
X008625Y006740D02*
X006874Y006740D01*
X006617Y006423D02*
X008696Y006423D01*
X008854Y006265D02*
X006472Y006265D01*
X006232Y006106D02*
X004001Y006106D01*
X003934Y006177D02*
X004117Y006177D01*
X004299Y006177D01*
X004557Y006434D01*
X004557Y006617D01*
X004557Y006799D01*
X004299Y007057D01*
X004117Y007057D01*
X004117Y006617D01*
X004117Y006617D01*
X004557Y006617D01*
X004117Y006617D01*
X004117Y006617D01*
X004117Y007057D01*
X003934Y007057D01*
X003677Y006799D01*
X003677Y006617D01*
X004117Y006617D01*
X004117Y006617D01*
X004117Y006177D01*
X004117Y006617D01*
X004117Y006617D01*
X003677Y006617D01*
X003677Y006434D01*
X003934Y006177D01*
X003846Y006265D02*
X002867Y006265D01*
X002867Y006324D02*
X002574Y006617D01*
X002160Y006617D01*
X001867Y006324D01*
X001867Y005909D01*
X002160Y005617D01*
X002574Y005617D01*
X002867Y005909D01*
X002867Y006324D01*
X002767Y006423D02*
X003688Y006423D01*
X003677Y006582D02*
X002609Y006582D01*
X002125Y006582D02*
X001609Y006582D01*
X001574Y006617D02*
X001160Y006617D01*
X000867Y006324D01*
X000867Y005909D01*
X001160Y005617D01*
X001574Y005617D01*
X001867Y005909D01*
X001867Y006324D01*
X001574Y006617D01*
X001767Y006423D02*
X001966Y006423D01*
X001867Y006265D02*
X001867Y006265D01*
X001867Y006106D02*
X001867Y006106D01*
X001867Y005948D02*
X001867Y005948D01*
X001746Y005789D02*
X001987Y005789D01*
X002146Y005631D02*
X001588Y005631D01*
X001146Y005631D02*
X000687Y005631D01*
X000687Y005789D02*
X000987Y005789D01*
X000867Y005948D02*
X000687Y005948D01*
X000687Y006106D02*
X000867Y006106D01*
X000867Y006265D02*
X000687Y006265D01*
X000687Y006423D02*
X000966Y006423D01*
X001125Y006582D02*
X000687Y006582D01*
X000687Y006740D02*
X003677Y006740D01*
X003776Y006899D02*
X000687Y006899D01*
X000687Y007057D02*
X001978Y007057D01*
X002255Y007057D02*
X004417Y007057D01*
X004259Y007216D02*
X002522Y007216D01*
X001712Y007216D02*
X000687Y007216D01*
X000687Y007374D02*
X001600Y007374D01*
X001547Y007533D02*
X000687Y007533D01*
X000687Y007691D02*
X001547Y007691D01*
X001333Y007850D02*
X000687Y007850D01*
X000687Y008008D02*
X001161Y008008D01*
X001094Y008167D02*
X000687Y008167D01*
X000687Y008325D02*
X001077Y008325D01*
X001077Y008484D02*
X000687Y008484D01*
X000687Y008642D02*
X001077Y008642D01*
X001077Y008801D02*
X000687Y008801D01*
X000687Y008959D02*
X001077Y008959D01*
X001115Y009118D02*
X000687Y009118D01*
X000687Y009276D02*
X001213Y009276D01*
X001456Y009435D02*
X000687Y009435D01*
X002597Y009276D02*
X002637Y009276D01*
X002936Y009276D02*
X007463Y009276D01*
X008066Y007057D02*
X008774Y007057D01*
X008625Y006899D02*
X007908Y006899D01*
X007943Y006141D02*
X007685Y005883D01*
X007685Y005701D01*
X008125Y005701D01*
X008125Y006141D01*
X007943Y006141D01*
X007908Y006106D02*
X007001Y006106D01*
X007253Y005948D02*
X007750Y005948D01*
X007685Y005789D02*
X007346Y005789D01*
X007377Y005631D02*
X007685Y005631D01*
X007685Y005701D02*
X007685Y005518D01*
X007943Y005261D01*
X008125Y005261D01*
X008125Y005701D01*
X008125Y005701D01*
X008125Y006141D01*
X008307Y006141D01*
X008565Y005883D01*
X008565Y005701D01*
X008125Y005701D01*
X008125Y005701D01*
X008125Y005701D01*
X007685Y005701D01*
X007731Y005472D02*
X007358Y005472D01*
X007281Y005314D02*
X007890Y005314D01*
X008125Y005314D02*
X008125Y005314D01*
X008125Y005261D02*
X008307Y005261D01*
X008565Y005518D01*
X008565Y005701D01*
X008125Y005701D01*
X008125Y005701D01*
X008125Y005261D01*
X008125Y005472D02*
X008125Y005472D01*
X008125Y005631D02*
X008125Y005631D01*
X008125Y005789D02*
X008125Y005789D01*
X008125Y005948D02*
X008125Y005948D01*
X008125Y006106D02*
X008125Y006106D01*
X008342Y006106D02*
X008823Y006106D01*
X008665Y005948D02*
X008500Y005948D01*
X008565Y005789D02*
X008625Y005789D01*
X008625Y005631D02*
X008565Y005631D01*
X008519Y005472D02*
X008647Y005472D01*
X008805Y005314D02*
X008360Y005314D01*
X008847Y004838D02*
X008887Y004838D01*
X008887Y004680D02*
X008847Y004680D01*
X008847Y004521D02*
X008887Y004521D01*
X009524Y004046D02*
X009797Y004046D01*
X009797Y004204D02*
X009619Y004204D01*
X009797Y003887D02*
X009321Y003887D01*
X009568Y003729D02*
X009797Y003729D01*
X009797Y003570D02*
X009667Y003570D01*
X009707Y003412D02*
X009797Y003412D01*
X009797Y003253D02*
X009704Y003253D01*
X009638Y003095D02*
X009797Y003095D01*
X009797Y002936D02*
X009500Y002936D01*
X009519Y002778D02*
X009797Y002778D01*
X009797Y002619D02*
X009647Y002619D01*
X009707Y002461D02*
X009797Y002461D01*
X009797Y002302D02*
X009707Y002302D01*
X009659Y002144D02*
X009797Y002144D01*
X009797Y001985D02*
X009549Y001985D01*
X009467Y001827D02*
X009797Y001827D01*
X009797Y001668D02*
X009626Y001668D01*
X009692Y001510D02*
X009797Y001510D01*
X009797Y001351D02*
X009707Y001351D01*
X009679Y001193D02*
X009797Y001193D01*
X009797Y001034D02*
X009598Y001034D01*
X009797Y000876D02*
X009392Y000876D01*
X004702Y000717D02*
X004446Y000717D01*
X004558Y000876D02*
X004611Y000876D01*
X004137Y000876D02*
X004097Y000876D01*
X004097Y000717D02*
X004137Y000717D01*
X004137Y001034D02*
X004097Y001034D01*
X004097Y001193D02*
X004137Y001193D01*
X004097Y001351D02*
X000687Y001351D01*
X000687Y001193D02*
X003637Y001193D01*
X003637Y001034D02*
X000687Y001034D01*
X000687Y000876D02*
X003675Y000876D01*
X003787Y000717D02*
X000687Y000717D01*
X000687Y001510D02*
X003637Y001510D01*
X003637Y001668D02*
X002625Y001668D01*
X002784Y001827D02*
X003664Y001827D01*
X003756Y001985D02*
X002867Y001985D01*
X003617Y002302D02*
X003617Y002302D01*
X003617Y002461D02*
X003617Y002461D01*
X003617Y002619D02*
X003617Y002619D01*
X003617Y002778D02*
X003617Y002778D01*
X003617Y002936D02*
X003617Y002936D01*
X003013Y003253D02*
X000687Y003253D01*
X000687Y003412D02*
X002900Y003412D01*
X002857Y003570D02*
X000687Y003570D01*
X000687Y003729D02*
X002862Y003729D01*
X002928Y003887D02*
X000687Y003887D01*
X000687Y004046D02*
X003086Y004046D01*
X003062Y004204D02*
X000687Y004204D01*
X000687Y004363D02*
X002921Y004363D01*
X002857Y004521D02*
X000687Y004521D01*
X000687Y004680D02*
X002857Y004680D01*
X002907Y004838D02*
X000687Y004838D01*
X000687Y004997D02*
X003030Y004997D01*
X003164Y005155D02*
X000687Y005155D01*
X000687Y005314D02*
X002953Y005314D01*
X002875Y005472D02*
X000687Y005472D01*
X002588Y005631D02*
X002857Y005631D01*
X002887Y005789D02*
X002746Y005789D01*
X002867Y005948D02*
X002981Y005948D01*
X002867Y006106D02*
X003232Y006106D01*
X004117Y006265D02*
X004117Y006265D01*
X004117Y006423D02*
X004117Y006423D01*
X004117Y006582D02*
X004117Y006582D01*
X004117Y006740D02*
X004117Y006740D01*
X004117Y006899D02*
X004117Y006899D01*
X004457Y006899D02*
X004576Y006899D01*
X004557Y006740D02*
X004734Y006740D01*
X004893Y006582D02*
X004557Y006582D01*
X004545Y006423D02*
X005051Y006423D01*
X005276Y006265D02*
X004387Y006265D01*
X004253Y005948D02*
X005725Y005948D01*
X001867Y002324D02*
X001574Y002617D01*
X001160Y002617D01*
X000867Y002324D01*
X000867Y001909D01*
X001160Y001617D01*
X001574Y001617D01*
X001867Y001909D01*
X001867Y002324D01*
X001867Y002302D02*
X001867Y002302D01*
X001867Y002144D02*
X001867Y002144D01*
X001867Y001985D02*
X001867Y001985D01*
X001784Y001827D02*
X001950Y001827D01*
X002108Y001668D02*
X001625Y001668D01*
X001108Y001668D02*
X000687Y001668D01*
X000687Y001827D02*
X000950Y001827D01*
X000867Y001985D02*
X000687Y001985D01*
X000687Y002144D02*
X000867Y002144D01*
X000867Y002302D02*
X000687Y002302D01*
X000687Y002461D02*
X001004Y002461D01*
X001730Y002461D02*
X002004Y002461D01*
X004097Y001985D02*
X004137Y001985D01*
X004137Y001827D02*
X004097Y001827D01*
X004097Y001668D02*
X004137Y001668D01*
X004137Y001510D02*
X004097Y001510D01*
X004569Y001827D02*
X004598Y001827D01*
X004671Y001985D02*
X004477Y001985D01*
D11*
X003877Y002617D02*
X003357Y002617D01*
X003357Y003617D02*
X003877Y003617D01*
X003877Y004617D02*
X003357Y004617D01*
X003357Y005617D02*
X003877Y005617D01*
X006357Y005617D02*
X006877Y005617D01*
X006877Y004617D02*
X006357Y004617D01*
X006357Y003617D02*
X006877Y003617D01*
X006877Y002617D02*
X006357Y002617D01*
D12*
X006117Y001667D02*
X006117Y001067D01*
X005117Y001067D02*
X005117Y001667D01*
X004117Y001667D02*
X004117Y001067D01*
X008567Y001367D02*
X009167Y001367D01*
X009167Y002367D02*
X008567Y002367D01*
X008567Y003367D02*
X009167Y003367D01*
X009167Y004367D02*
X008567Y004367D01*
X008867Y008317D02*
X008867Y008917D01*
X007867Y008917D02*
X007867Y008317D01*
X002617Y008317D02*
X002617Y008917D01*
X001617Y008917D02*
X001617Y008317D01*
D13*
X004117Y006617D03*
X002367Y006117D03*
X001367Y006117D03*
X006117Y006617D03*
X008125Y005701D03*
X009125Y005701D03*
X009125Y006701D03*
X002367Y002117D03*
X001367Y002117D03*
D14*
X002117Y007617D03*
X006117Y007617D03*
D15*
X007367Y007617D01*
X007867Y008117D01*
X007867Y008617D01*
X008867Y008617D02*
X008867Y008367D01*
X007617Y007117D01*
X006742Y007117D01*
X006242Y006617D01*
X006117Y006617D01*
X005367Y006617D01*
X004367Y007617D01*
X002117Y007617D01*
X003867Y008617D02*
X006492Y008617D01*
X006617Y005617D02*
X005867Y005617D01*
X005367Y005117D01*
X005367Y002367D01*
X006117Y001617D01*
X006117Y001367D01*
X006617Y002617D02*
X007367Y002617D01*
X008117Y003367D01*
X008867Y003367D01*
D16*
X006492Y008617D03*
X003867Y008617D03*
M02*
